<svg version="1" xmlns="http://www.w3.org/2000/svg" width="933.333" height="933.333" viewBox="0 0 700.000000 700.000000"><path d="M313.9 1c-6.4 1.1-13.3 4.3-19.7 9.1-9.8 7.5-11 7.7-30.7 4.9-3.8-.5-11-1.2-16-1.6-8.7-.6-9.4-.5-21.4 3.6-6.8 2.4-13.9 5.1-15.8 6.2-8.1 4.8-22.6 30-26.3 45.8-1.8 7.6-4.4 12.4-8.4 15.5-3.1 2.4-4 2.5-10.3 2-8.3-.6-14.2-1.4-20.8-2.5-23.5-4.2-41.2-2.4-52.5 5.3-5.6 3.8-6.4 4.8-20.5 22.9-10.1 13-12.3 15.2-19.1 19.5-22.2 14-25.5 23.8-12.8 37.8 6.4 7.1 9.4 11.7 9.4 14.6 0 3.2-7.3 11.8-14 16.4-7.3 5.1-9.7 11.9-7.1 20.3 1 3.2.8 3.5-6.2 10.6C10 243.2 2.9 251.3 1.8 254c-2.1 5.6-1.1 18.5 1.9 24.4 2 3.8 19.1 26 25.5 33 2.3 2.6 2.3 6.1-.1 9.4-2.6 3.7-5.1 12.6-5.1 18.2 0 2.6.7 8.9 1.6 14.1 2.2 13.1 5.6 19.1 16.4 28.9 6.9 6.4 9.3 9.4 12.4 15.4 4.2 8.5 6.8 10.5 16.1 12.9 8.8 2.2 11 3.2 12.8 6.1 2.8 4.2 3.4 9.5 2 16.6-2.4 12.4-2.6 17.4-.9 22.3 1.9 5.8 2.2 11.4 1.2 24.2-.4 5.5-.9 12.1-1.1 14.7-.6 8.9-5.3 12.3-16.6 12.3-5.7 0-7.3-.4-11.8-3.3-6.4-3.9-6.8-4-4.6-.5 4 6.4 8.6 9.7 18 13.2 7.6 2.8 17.4 1.3 24.7-3.7 5.2-3.6 7.7-7.1 10.8-15.5 1.3-3.4 2.7-5.7 3.6-5.7.9 0 2.7 2.5 4.1 5.7 3.5 7.5 3.6 15.9.3 26.3-2.6 8.6-3 15.3-1 20.1.8 1.9 4.7 8.7 8.7 15.1 11.6 18.5 12.5 20.6 12 25.8-.4 3.5-1.3 5.1-4.1 7.7-5.3 4.9-9.7 5.3-17.8 1.8-3.6-1.5-1.8 2.6 3.2 7.5 8 7.8 18.7 10.6 32 8.6 14.6-2.3 23.2-12.6 23.2-27.4-.1-3.1-.3-6.6-.5-7.7-5.5-22.6-8-35.8-7.8-40.2.1-2.6 6.2-9.3 8.5-9.3 2.4 0 13 11.3 15.5 16.5 4.3 9.1 4.6 17 1.6 39.9-2.3 16.9-2.3 27.8-.2 35.9 1.9 7.4 8.7 18.9 13.1 22.2 10.9 8.3 32.6 7.1 43.7-2.4 3.8-3.2 4.7-4.5 6.3-9.9.7-2 .5-2.1-1.9-1.2-4.8 1.8-17.1-.2-24.5-4-7.7-4-10.8-10.3-10.4-21.5.5-15.8 3.5-24.1 10.2-27.9 1-.6 1.2.4.9 4.5-.5 6.7.9 11.2 4.8 15.3 3.5 3.8 5.2 4.6 22.5 11.6 17.2 6.9 22.9 11.1 27.1 19.8 2.8 5.7 2.8 10.4.1 14.2-4.1 5.5-1.9 9.8 3.5 6.9 4.8-2.6 14.2-12.4 16.7-17.6 1.5-2.8 2.9-7.8 3.2-11.1l.7-6 6.9-.1c3.8 0 7.3-.3 7.7-.5.4-.3 1.8-.7 3.2-.9 1.3-.3 4.2-1 6.4-1.5 7.9-2.2 10.2-2.4 23-2.8 13.9-.4 19.6.6 27.1 4.5 10.6 5.5 11.7 13.4 3.8 25.8-1.9 3-3.4 5.6-3.4 5.8 0 1 5.2.4 8.7-1 4.3-1.8 11.3-9.1 14.5-15.1 1.2-2.4 2.7-4.3 3.2-4.1 1.3.4 7 11.5 10.2 19.9 2.3 6 4.8 14.9 7.4 25.8.4 1.9 1.7 6.9 2.8 11 1.1 4.1 2.7 11 3.7 15.3l1.6 7.7H700V448.3l-6.7-1.7c-3.8-1-7.9-2.1-9.3-2.6-1.4-.4-6.3-1.8-11-3-21-5.5-41.4-12.2-42.5-14-.3-.5.5-1.2 1.7-1.5 5.4-1.7 8.7-5.4 10.8-12.1 1.1-3.7 2-7.1 2-7.6s-2 .8-4.5 3c-4.7 4.1-10.1 6.1-15.1 5.6-15.9-1.8-24.5-4.7-29.3-9.8l-2.3-2.4 4.4-.7c2.4-.4 5.4-.9 6.8-1.2 5.4-.9 17.2-7.4 22.5-12.4 6.5-6.1 12.2-16.7 13.1-24.4.8-5.9.7-5.9-7.1 5.5-3.3 4.7-6.2 8.7-6.6 9-.3.3-1.1 1.5-1.8 2.7-.6 1.3-1.6 2.3-2.2 2.3-.5 0 .2-2.2 1.6-5 3.6-7 3.1-7.8-1.9-3.2-5.5 5-9.3 7.1-14.9 7.8-6.2.9-8.7-.7-8.7-5.5 0-6.8-1.1-9.9-5.6-15.2-2.7-3.1-4.3-5.8-4-6.8.3-.9.8-3.2 1.1-5.1.3-1.9.8-4.6 1-6 .3-1.4.7-3.4.9-4.5.2-1.1.9-4.8 1.6-8.2l1.2-6.2 2.9 1.5c5.8 2.9 9.6 7.9 12.3 16.1 1.4 4.3 2.8 9.1 3 10.7.6 3.2-2 9-5.3 12-1.2 1.1-2.1 2.3-2.1 2.8 0 3.5 15.9-12.8 16.1-16.6.4-7.1-3.3-15.9-10.8-25.9-5-6.8-9.6-10.2-17.5-13.1-5.6-2.1-5.9-3.2-2.8-12.1 2.7-7.7 2.5-12-.7-20.6-2.3-6.1-2.5-7.6-1.5-10.3 2.3-6.3 1-10.6-4.8-15.1-6.8-5.3-7.8-6.9-7.5-12.1.1-2.7-.3-6.1-1.1-7.5-.7-1.4-5.8-6.5-11.3-11.3-5.6-4.8-10.1-9.4-10.1-10.3 0-.9 2.8-7.5 6.2-14.7l6.2-13.1.1-12.3c.3-22.6-4.5-39-13.5-46.2-1.7-1.4-10.2-6.2-18.8-10.7l-15.7-8.2.1-3.8c.1-4.4 1.3-16.4 2-19.6.7-2.9.6-14.6 0-17.6-2.2-9.9-5-17-8.4-20.9-2.4-2.8-20-12.3-26.8-14.5-9.4-3.1-12.5-3.4-35.6-3.7-15.7-.3-15.8-.3-22-3.6-3.5-1.8-11.7-5.1-18.2-7.3-6.6-2.3-14.3-5.5-17.2-7.1-2.8-1.7-7.6-3.5-10.5-4-3-.6-6.5-1.2-7.9-1.5-1.4-.3-5.1-.9-8.2-1.5-3.2-.6-7-1.3-8.5-1.6C353 .4 319 .1 313.9 1zm31.9 9.3c3.5.2 1.1 1.6-3.8 2.2-2.5.3-7 1-10 1.5s-7.3 1.2-9.5 1.5c-2.2.3-7.8 1.2-12.5 1.9-8.2 1.4-11.1 1.4-7.6 0 1-.4 7.2-2.4 13.9-4.5C327.4 9.3 329.2 9 336 9.6c4.1.3 8.5.6 9.8.7zM220.3 34.2c.5 1.6-1.3 6.9-4.3 12.9-4.3 8.4-15 21.2-15 17.8.1-5.6 15-31.9 18.1-31.9.4 0 .9.6 1.2 1.2zm284.3 15c3.4 2.3 6.7 8.1 7.8 13.8.7 3.2.4 3-2.9-2.5-2.1-3.3-5.1-7.7-6.7-9.8-3.4-4.2-2.8-4.7 1.8-1.5zm-6.5 7c6.9 9.1 12.9 24.4 13.1 33 .1 6.4-.8 7.1-2.2 1.7-2-8.2-8.3-20.1-13.3-25.2-4.4-4.4-4.8-5.3-4.6-9 .1-2.3.4-4.5.6-5 .7-1.2 3.8 1 6.4 4.5zM119.2 89.6c1.9.6 1.6.8-1.8 2-2.1.8-5.1 1.2-6.6 1-1.5-.3-2.7-.2-2.7.2.4 2.1-.4 3.1-3.3 4.3-1.8.8-3.8 1.3-4.4 1.1-.6-.1-3.8 3.3-7 7.5-3.2 4.3-6.1 8-6.5 8.3-.3.3-2.3 3.4-4.4 6.9-4.4 7.1-6.2 8.6-12.2 9.9l-4.3 1 2.2-3.2c4.1-5.8 18.2-24.1 21.2-27.4 7.8-8.6 21.9-14.1 29.8-11.6zm-67.5 59.5c-1.2 2.4-2 6.3-2.1 9.4-.1 5.2-.2 5.3-2.1 4.1-4.2-2.8-3.1-12.4 1.8-15.5 4.5-2.9 4.7-2.7 2.4 2zm202.3 8.6c3.1 7 7.9 14.3 12.2 18.7 2.2 2.1 3.7 4 3.5 4.2-.6.6-6.7-1.7-11.7-4.4-2.5-1.3-6.4-4.3-8.7-6.5-5.4-5.2-5.8-9.3-1.4-13.8 1.6-1.6 3.2-2.9 3.5-2.9.3 0 1.5 2.1 2.6 4.7zm19.6 9.8c10.6 3.9 15 4.7 27.4 5.1 6.3.1 12 .4 12.5.4 2.7.5-15.1 4.1-22.5 4.6-9.7.7-13.3-.3-19.4-5.6-3.2-2.9-6.4-7-5.3-7 .2 0 3.5 1.1 7.3 2.5zm-58.4.3c.3 1 .3 7.7.1 14.9-.4 12.6-.3 13.3 2.7 21 1.7 4.4 3.8 8.7 4.8 9.5 2.6 2.2 8.1 3.5 13.7 3.2 18-.9 34-1.1 36.7-.5 1.8.5 5.8 1.4 8.8 2.1 5.5 1.3 20.6 7.8 26.8 11.5 4 2.4 5.2 6.2 3.9 12.5-.5 2.4-1.8 4.2-4 5.7-3.2 2.2-5.4 2.8-15.7 3.8-11.1 1.1-22.9 3.4-27.1 5.3-6.2 2.8-10.8 7.7-14.1 15.2-1.7 3.6-4 8.7-5.3 11.5-3.1 6.6-4.4 11.8-5.1 20.1-.6 6.6-.5 7 2.1 9.4l2.7 2.5 2.4-2.8c1.4-1.6 2.4-4.2 2.5-6 .4-12.8 1.2-16.4 5.5-25 8.7-17.5 11.4-19.5 30.1-22.2 2.3-.3 7.2-1.2 11-2 11.4-2.4 10.8-2.8 12.7 7.2.9 4.7 1.5 8.7 1.3 8.8-17.5 12.6-22.5 17.1-29 26.3-7.4 10.5-12.3 19.5-13.1 23.6-.3 1.4-.4 2.6-.2 2.6.1 0 2-.9 4.2-1.9 5.3-2.6 7.6-5.3 12.7-14.7 2.3-4.3 4.9-8 5.7-8.2.8-.1 2.2 1.1 3.2 2.7 4.3 7.6 13.6 7.8 22 .5 3.4-3.1 5.5-4.3 6.7-3.8.9.3 5.8 2.2 10.9 4 10.2 3.7 11.8 4.8 13.3 9.4 1.1 3-.1 11.1-2.3 15.2-.4 1-.9 4.4-.9 7.6-.1 7.5 3.5 15.1 8.9 18.6 3.3 2.2 4.3 2.3 8.7 1.6 6.2-1 13.7-.6 20.7 1 6.6 1.6 10.1 3.3 15.6 7.8 3.6 2.9 4.2 3.2 4.3 1.6.5-8.3-3.6-12.5-13.6-13.8-6.3-.9-21-7.7-22.5-10.5-1.5-3-.6-5.2 6.3-15.5 3.2-4.9 6.8-10.8 7.9-13.3 2.5-5.6 2.6-13.3.1-17.4-2-3.4-3.4-4.3-14.3-9.2-15.9-7.2-19.8-14.2-14.8-27.4l2.1-5.7 2.5 5.2c3.8 8.2 12.6 16.4 22.4 21 4.6 2.2 11.2 5 14.8 6.2 12.8 4.4 19 8 26.5 15.4 10.5 10.4 14.2 17.8 16 32.1 2 16 7 26.1 18.9 38.1 10.6 10.7 18.2 15.8 39.5 26.6 8.5 4.3 15.9 8.4 16.3 9.1 1.9 2.9 5.6 19.6 6.4 28.7.8 8.7-1.3 16.8-7.9 29.9-8.3 16.7-20.8 31.6-40.1 47.9-5 4.2-9.7 8.3-10.5 9-2.8 2.7-17.9 13.9-25.1 18.6-11.7 7.7-43.1 27.6-43.5 27.6-.2 0-2.1 1.1-4.1 2.5-4.6 3.1-27 14.1-38.4 18.8-16.8 6.9-27 8.8-35.1 6.7-2.4-.7-11.1-5.3-19.4-10.3-8.2-5-20.6-12-27.5-15.5-16.9-8.7-21.1-12-29.1-22.8-8.1-10.9-14.1-16.4-21.8-20-20.3-9.5-26.7-13.8-37.8-25.2-6.6-6.8-8.5-10.9-10.3-21.8-1-6.1-1.3-25-.5-31.9 1-7.9.7-23.1-.4-27.1-2.8-10.4-1.8-22.3 2.3-24.9 2.9-1.9 6.6-2.4 9.4-1.4 4.7 1.8 8.3 1.9 11.2.4 4.9-2.5 6.4-5.8 6.3-13.6-.1-6.4 0-6.8 1.8-5.9 2.7 1.5 3.9 4.3 3.9 9.5 0 4.2.2 4.5 1.9 3.6 2.6-1.4 4.9-6.8 5.7-13 1.2-9.8-2.8-14.9-16.5-21.2-17.8-8.3-27.6-9.9-39.2-6.6-7.9 2.4-16.8 8.6-20.4 14.3-1.6 2.6-2.9 5.1-2.8 5.5.3 1.1-4.1-1.3-6-3.2-2.3-2.4-4.8-10.6-4.2-14.2 1.1-6 4.9-9.4 17.1-15.2 14.7-7.1 19-9.8 21.4-13.8 3.8-6.1.8-10.4-10.8-15.8-3.5-1.6-6-3.4-5.7-3.8.3-.5 0-1.1-.7-1.3-.6-.2 3.1-3.1 8.3-6.4 5.2-3.4 10.1-6.9 10.9-7.9 2.8-3.3 1.9-10.5-1.9-16.6-11.6-18.2-10.4-21.6 11.4-33.4 11.3-6.1 22.8-14.2 25.3-17.9 3.6-5.3 4.3-9.5 4.5-27.6.3-19.1.7-20.4 8.3-24.7 4.7-2.7 7-2.9 7.6-.5zm344.9 2.4c.3 6.9-.7 12.7-3.1 18.3-6.5 15.1-8.5 18.4-8.8 15-.8-9.2-.5-10.5 4.6-21.6 1.7-3.6 3.5-8.5 4.2-10.8 1.3-4.9 3-5.4 3.1-.9zm-374.8 12.5c-3.3 7.2-3.5 8.4-3.7 18.7-.2 9.3-.6 11.8-2.4 15.3-4.7 9.1-13.4 14.4-18.1 11.1-2-1.4-2-1.5 1.3-5.3 5.4-6 9.4-15.7 10.9-26 1.5-10.1 5.1-16.7 10.7-19.6 1.9-1.1 3.8-1.9 4.2-1.9.4 0-.9 3.5-2.9 7.7zm146.2-.7c1.3 1.1 12.2 15.1 13.9 17.9.5.8 1 2.5 1.2 3.8l.2 2.4-5.6-3.2c-3.1-1.7-6.4-3.7-7.2-4.4-3.2-2.6-14.7-7.3-19.5-7.9-4.4-.6-14.2-2.2-18.5-3.1-.8-.2-2.8-.4-4.5-.4-7.5-.2 4-3.1 27-6.9 5.3-.9 10.7-.1 13 1.8zm-167.3 11.7c1.3 5.1-.9 14.4-4.5 19.8-3.3 4.8-8.8 9.4-13.5 11.2-2.3.9-4.5 1.4-4.7 1.1-1.1-1.1 2.8-8.1 6.4-11.6 2.1-2 5.8-7.3 8.1-11.7 6-11.2 7.3-12.5 8.2-8.8zm66.2 14.2c.9 1.2.7 1.2-1.4.1-3-1.6-4-2.9-4-5.4 0-1.5.4-1.3 2.2 1 1.2 1.6 2.6 3.5 3.2 4.3zm-190.9 2.3c-.4 2.4-1.3 5.1-2 6.1-1.3 1.8-1.4 1.8-2.4-.1-1.8-3.3-1.3-5.9 1.5-8.1 1.5-1.2 2.9-2.1 3.1-2.1.3 0 .2 1.9-.2 4.2zm521.1 20.3c7.7 6.1 10.9 10.3 9 12.2-1.6 1.6-18.6-14.6-18.6-17.8 0-1.6 1.1-1 9.6 5.6zm-219 17.9c3.6 7.4 4 9.8 2.3 14.3-1.9 4.9-1.3 11.6 1.5 17.1 2.5 4.9 10.7 14.2 12.5 14.2 1.3 0 2.3 3.2 1.4 4.1-1.1 1.1-15.1-7.2-19-11.3-3.3-3.5-6.3-11-6.3-15.6.1-1.5.8-5.4 1.6-8.7 1.4-5.3 1.7-10.5 1-18.5-.2-1.4 0-3.2.2-3.9.5-1.3.6-1.3 1 0 .3.7 2 4.5 3.8 8.3zM28 243.3c-1.4 1.3-3.7 3.1-5.2 4.1l-2.7 1.8.2-2.9c.3-3 3.5-5.3 7.7-5.3h2.5l-2.5 2.3zm112.3-.1c-3.2 3.5-4.7 8.9-3.9 13.9.5 3.5 2.3 6.5 9.1 14.9 4.7 5.8 8.5 10.8 8.5 11.1 0 1.5-3.7 4.9-6 5.4-2.2.5-2.5.3-2.7-2.7-.2-1.8-2.1-7.1-4.4-11.8-5-10.2-5.7-12.5-6.4-20.3-.3-3.4-.8-6.3-1-6.5-.2-.3 0-1.3.6-2.3.8-1.5 3.8-2.9 7.8-3.8.3-.1-.5.9-1.6 2.1zm417.5 2.2c2.3 4.6.6 5.3-1.7.7-1.5-2.9-1.8-4.2-.9-3.9.7.3 1.9 1.7 2.6 3.2zm-544.9 9.9c.2 5.1-.2 6.6-1.9 8.5-1.1 1.2-2.2 2.2-2.3 2.2-.1 0-.3-2.1-.4-4.8-.2-4.4 2.2-12.2 3.7-12.2.4 0 .8 2.8.9 6.3zm564 2.4c6.7 5.4 7.4 7.1 4.8 10.7-1.3 1.7-1.6 1.6-7.1-1.4-7-4-8.5-6.6-6.1-10.4 1-1.4 2.2-2.6 2.8-2.6.5 0 3.1 1.7 5.6 3.7zM380.1 267c3 .5 7.4 1.2 9.9 1.5 2.5.3 5.6.7 7 1 1.4.2 3.7.7 5.1.9 8.7 1.4 20.3 10.3 25.4 19.3 2 3.6 5.5 13.2 5.5 15 0 .2-3-2.7-6.7-6.5-7.4-7.6-12.1-10.7-22.8-14.7-7.3-2.8-16.5-6.6-22.5-9.3-4.8-2.2-11.1-6.8-10.3-7.6.9-.8 3-.8 9.4.4zM31.9 277l3.3 5-3.3 5.5c-3.7 6-4 5.9-5.4-2.3-.7-4.5.1-13.2 1.3-13.2.4 0 2.2 2.3 4.1 5zm534.8 10.6c.3 1.7.1 4-.5 5-1 1.7-1.3 1.4-2.9-2.3-1.7-3.6-1.9-5.6-1.4-11.3.2-2.3 4.2 4.9 4.8 8.6zm-521.3 8.8c2.5 5.2 7.7 20.6 7 20.6-.3 0-2.1-1-4.2-2.3-2-1.2-5.4-3.1-7.4-4.2-4.3-2.2-6.8-6.6-6.8-12 0-2.9.7-4.4 3.1-6.6 3.8-3.5 4.7-3 8.3 4.5zm520.5 9.1c4.5 5.3 5.4 6.5 4.4 6.5-2.5 0-13.3-12.6-13.3-15.5.1-.9 2 1.1 8.9 9zm-433 .7c.7 1.3 3.2 3.8 5.6 5.7 2.5 1.8 5.9 4.6 7.6 6.1l3.2 2.7-5.9 2.3c-9 3.4-27.6 10-28.2 10-.3 0 1.3-1.8 3.5-4.1 5.2-5.2 5.9-8.5 3.9-18.5-.3-1.6.4-2.6 3.2-4.2 4.8-2.6 5.6-2.6 7.1 0zm235.5 6.4c.3 2-2.8 8.7-6.4 13.9l-2.1 3 .5-4.4c.3-2.4 1.7-7 3.2-10.2 2.7-5.7 4.2-6.4 4.8-2.3zm-326 16.3c3.1 3.4 3.2 9.4.2 15.7-5.3 11.2-3.2 16.9 8.4 22.5 4.2 2.1 7.7 4.5 8.1 5.6.4 1.1 1.3 6.5 1.9 11.9.7 5.8 1.8 10.6 2.6 11.5.8.9 4.2 2.6 7.5 3.8 6.9 2.6 7.8 4.4 1.7 3.5-7-1.1-9.7-3-12.3-8.7-2.9-6.6-5.4-9.4-13.5-15.2-14.7-10.7-17.5-15-17.5-27.5 0-7.3.4-9.3 2.8-14.1 2.9-6 6.3-10.9 7.6-10.9.4 0 1.6.9 2.5 1.9zm116.3 39.5c5.5 1.9 5.3 4.4-1 15.1-6.1 10.3-7.4 10.9-14.7 7.2-4.9-2.6-8.9-8.9-9.5-15-.8-8.2 11.9-11.9 25.2-7.3zm433.3 4.8c0 .4-.6.5-1.4.2-1.5-.6-2.7-3.9-1.8-4.9.6-.5 3.1 3.2 3.2 4.7zm-413.6 4c-1 1.3-4 4.5-6.6 7.3-6.3 6.8-10.6 12.3-11.3 14.5-.8 2.4-3.5 3.5-3.5 1.4 0-1.9 6.3-14.6 9.2-18.7 2.7-3.8 7.6-6.7 11.2-6.7h2.9l-1.9 2.2zm-82.1 52c.2.7-.4 3.1-1.4 5.3-2.5 5.5-2.3 9.7.7 16.1 2.5 5.3 2.5 5.9 2 20.2-.5 15.4-.6 16.3-2.9 22.6-2.4 6.8-3.7 5.6-2.9-2.6.4-4 .7-12.7.7-19.3 0-11.1-.2-12.5-2.9-18.5-4.3-9.6-4-18.5 1-23.4 1.9-1.9 5.1-2.1 5.7-.4zm152.4 159.4c2.5 1.4 4.2 2.8 4 3-.8.8-7.1-2.1-8.6-3.9-1.9-2.4-.5-2.1 4.6.9zm131.8 8.2c7.1 2.7 10.2 5.6 11.3 10.9.5 2.6 1 6.4 1 8.3.1 3.4 0 3.4-.8.8-3.2-10.6-11.5-16.3-27.4-18.9-5.8-.9-7.4-1.5-6-2 3.2-1.3 17.6-.7 21.9.9zm-103.8 7.8c3 3.1 5.2 5.9 4.9 6.1-.3.3-2.6-.9-5.1-2.6-2.5-1.7-4.8-3.1-5.1-3.1-1 0-6.4-4.4-6.4-5.2 0-.4 1.4-.8 3.2-.8 2.6 0 4.2 1.1 8.5 5.6z"/><path d="M282.3 417.3c-1.9 3.3-8.9 6.7-15.8 7.6-7.1 1-9.5 2.6-9.5 6.2 0 2.8-3.8 6.7-8.3 8.4-4.3 1.6-10.9 1.6-22-.1-6.3-.9-8.8 1.1-7.7 6.2 1.2 5 3.1 7.5 11.2 14.5 9 7.7 9.4 8.2 11.3 14.4 1.6 5.2 2.6 6.8 6.2 9.8 3.8 3.3 5.8.9 9.4-10.6 3.3-10.4 4.8-13.3 10-19 3.1-3.3 3.1-3.3 3.4-8.7.3-5.8 3-9.5 10.5-14.4 8-5.3 9.5-8.2 6.3-12.4-2.4-3.2-3.9-3.8-5-1.9zM348.5 459.1c-8.2 2.5-21.3 4-28 3.3-15.4-1.6-20.5-.5-24 5.5-4.5 7.7-13.5 14.2-21.5 15.6-5.2.9-10.3 2.5-12.2 3.9-3.2 2.3-6 13.3-6 23.3 0 5.1.3 9.6.5 10 .3.5.8 3 1.1 5.7.4 2.7.9 5.3 1.1 5.6.2.4.7 2.2 1 4 1.3 7.6 3.4 10 14.9 17.5 12.2 7.9 15.5 9.4 20.4 9 4.5-.4 7.6-2.7 12.7-9.6 7.8-10.6 9.4-12.1 18.3-16.8 6.9-3.7 9.5-5.7 13.2-10.5 4.2-5.4 4.5-6.3 4.7-12.3.2-7.2-1.2-12.3-3.3-12.3-.8 0-3.8 1.9-6.7 4.3-3.3 2.7-9.8 6.2-16.8 9.1-6.3 2.7-14.4 6.4-18.1 8.2-3.7 1.9-7.9 3.4-9.3 3.4-7.7 0-14.3-11.6-10-17.7 1.4-2 3.7-2.7 12.4-3.8 5.9-.8 8.7-3 14.6-11.8l4.9-7.5 13.3-6.6c7.2-3.6 13.5-6.6 13.8-6.6 1.9 0 14.7-7 17.5-9.5 3.9-3.6-1.2-5.6-8.5-3.4z"/></svg>