<?xml version="1.0" encoding="utf-8"?>
<!-- Generator: Adobe Illustrator 16.0.0, SVG Export Plug-In . SVG Version: 6.00 Build 0)  -->
<!DOCTYPE svg PUBLIC "-//W3C//DTD SVG 1.1//EN" "http://www.w3.org/Graphics/SVG/1.1/DTD/svg11.dtd">
<svg version="1.1" id="Layer_1" xmlns="http://www.w3.org/2000/svg" xmlns:xlink="http://www.w3.org/1999/xlink" x="0px" y="0px"
	 width="620.11px" height="676.602px" viewBox="528.458 -50.271 620.11 676.602"
	 enable-background="new 528.458 -50.271 620.11 676.602" xml:space="preserve">
<path opacity="0.4" fill="#F7941E" d="M1022.756,172.518c0.239-4.465-0.33-7.462-4.525-9.051
	C1019.729,166.464,1021.048,169.071,1022.756,172.518z M761.625,481.421c5.604,3.597,10.909,7.014,16.453,10.58
	c-0.569-0.989-0.929-2.008-1.588-2.728C772.624,484.958,770.106,478.244,761.625,481.421z M1025.963,195.774
	c-1.799,4.376-0.271,12.468,3.146,14.506C1031.268,205.665,1031.117,204.916,1025.963,195.774z M1052.816,281.43
	c-1.229-2.667-2.038-4.466-2.851-6.264C1048.32,278.942,1048.8,279.961,1052.816,281.43z M829.178-41.5
	c-5.691-1.289-11.089-0.569-16.514,1.588c-4.046,1.619-8.422,2.518-12.617,3.836c-1.799,0.569-3.563,1.318-5.335,2.008
	c0.09,0.24,0.18,0.509,0.3,0.749c13.966-2.188,27.962-4.405,41.932-6.593c0-0.12,0-0.24,0-0.359
	C834.362-40.661,831.726-40.931,829.178-41.5z M980.468,35.044c3.417-10.19-8.812-37.672-16.9-40.31
	c-0.093,1.109,0.027,2.008-0.21,2.757c-1.528,4.466-0.932,8.032,3.717,10.43c1.378,0.719,2.637,2.248,3.297,3.687
	c2.967,6.354,7.672,11.928,8.511,19.241C979.029,32.107,979.778,33.276,980.468,35.044z M1033.096,226.794
	c0.271-0.24,0.539-0.51,0.812-0.75c-3.985-4.585-8.002-9.141-12.021-13.726c-0.3,0.27-0.6,0.539-0.929,0.779
	C1024.225,218.342,1027.761,223.317,1033.096,226.794z M555.549,163.377c-7.762-0.36-10.64,1.289-9.531,7.612
	C549.046,168.592,551.983,166.224,555.549,163.377z M553.122,209.561c2.218-3.417,3.986-6.024,5.604-8.751
	c0.33-0.54,0.183-1.648-0.21-2.218c-1.678-2.547-3.563-4.975-5.361-7.462c-0.36,0.09-0.75,0.15-1.109,0.24
	C550.395,197.153,550.814,202.877,553.122,209.561z M732.644,134.785c-1.945-2.518-3.836-4.945-5.901-7.612
	C727.608,132.837,728.867,134.515,732.644,134.785z M557.767,139.131c-0.027,1.259,1.472,2.577,2.278,3.866
	c0.719-0.929,1.828-1.738,2.098-2.817c0.66-2.487,0.959-5.095,1.438-7.972C560.254,133.676,557.947,135.744,557.767,139.131z
	 M769.387,111.049c-9.561-6.144-14.146-15.884-18.432-25.745c-5.754,2.997-8.063,8.481-5.095,12.258
	C751.824,105.205,760.276,108.711,769.387,111.049z M660.295,234.137c-5.064-5.934-13.187-7.972-16.004-15.495
	c-2.607,1.408-5.215,2.787-8.002,4.315c0.39,1.978,0.959,3.926,1.199,5.934c0.656,5.694-0.45,10.64-5.874,13.846
	c-0.843,0.48-1.169,1.769-1.562,2.398C640.186,241.449,650.075,237.853,660.295,234.137z M763.394,95.854
	c5.308,10.28,14.865,13.187,23.736,11.898c6.233-0.929,12.377-2.578,18.581-3.896c0-0.33-0.03-0.66-0.06-0.989
	c-7.346-0.12-14.865,0.6-22.062-0.599C776.49,101.068,769.688,97.922,763.394,95.854z M982.326,9.39
	c0.06-8.452-5.188-16.903-11.539-18.012c2.278,3.027,4.525,5.784,6.443,8.751C979.119,3.096,980.646,6.303,982.326,9.39z
	 M1043.016,181.419c-2.787-2.518-5.934-4.706-9.051-7.103c-0.779,1.019-1.289,1.828-1.979,2.487c-2.85,2.667-1.979,5.215,0.72,7.073
	c3.026,2.098,6.384,3.687,9.95,5.724C1043.705,186.364,1045.683,183.846,1043.016,181.419z M1014.214,132.178
	c5.965-11.688,12.618-23.047,9.171-36.594c-1.049,3.237-2.037,6.893-3.416,10.4c-1.589,3.986-3.387,7.942-5.395,11.748
	C1012.865,120.999,1012.386,129.271,1014.214,132.178z M681.934,121.928c-1.825,10.609-4.016,20.979-13.273,28.442
	c2.814,2.637,5.604,3.177,8.602,1.768c6.982-3.177,13.156-14.326,11.868-21.938c-1.02-5.994-0.21-11.628,2.248-17.083
	c1.139-2.578,2.367-5.095,3.956-8.481c-2.188,0.899-3.747,1.349-5.125,2.158C684.331,110.09,682.953,116.024,681.934,121.928z
	 M603.322,44.035c-5.784,7.253-11.183,14.835-16.993,22.627c4.915-0.989,9.89-0.749,12.497-5.994
	c1.438-2.877,3.177-5.604,5.095-8.212c3.866-5.245,7.912-10.339,11.898-15.524c2.368,0.809,2.938,0.629,8.332-2.817
	c-0.183-0.929-0.359-1.888-0.603-3.207c5.005,4.406,8.361-1.109,12.469-1.139c-6.595-2.188-16.334-0.569-22.688,4.256
	C609.586,36.872,606.259,40.379,603.322,44.035z M664.222,200.24c-3.773-5.065-7.553-10.19-11.839-14.835
	c-2.906-3.177-4.165-6.503-3.956-10.699c0.24-4.616,1.892-8.332,5.875-10.969c-4.646,0.12-8.242,1.888-7.973,4.286
	c0.688,6.354,0.896,13.187,3.507,18.792c2.997,6.384,7.942,11.838,7.043,19.84c2.521-1.229,4.615-1.948,6.294-3.207
	C663.952,202.877,664.641,200.81,664.222,200.24z M887.47,201.739c8.515,3.327,15.824,8.302,21.369,15.674
	c0.989,1.319,1.979,2.637,2.997,3.956c-2.607-15.195-12.438-30.57-32.009-32.697c-7.372-0.81-14.715-2.128-22.058-3.147
	c-0.513-0.09-1.052,0.24-1.592,0.39c-0.119,0.299-0.27,0.599-0.419,0.929c3.326,2.158,6.413,4.795,10.013,6.384
	C872.845,196.374,880.217,198.952,887.47,201.739z M563.911,205.635c-2.877,2.518-6.204,4.496-5.875,8.901
	c0.36,4.975,1.679,9.201,7.133,11.208c3.177,1.169,6.023,3.297,9.65,5.365C571.823,222.028,570.354,212.917,563.911,205.635z
	 M842.814,478.274c15.191,2.274,30.446,3.177,33.354,22.418c-0.18-3.447-0.509-6.863-0.509-10.313c0-3.984-1.828-7.044-4.945-9.052
	C862.265,475.847,853.094,475.667,842.814,478.274z M607.638,330.939c-4.886,5.035-3.417,15.105-0.09,20.979
	c0.659,1.14,1.648,2.247,1.798,3.479c0.869,6.832,2.101,13.576,0.63,20.619c-1.049,4.885-0.75,10.039-1.049,15.072
	c0.569,0.03,1.108,0.092,1.647,0.12c2.367-5.728,3.807-11.688,3.983-17.923c0.21-6.057,0.303-12.141,0.15-18.191
	c-0.062-1.947-0.689-4.226-1.828-5.725c-3.146-4.137-3.627-10.551-0.63-15.045c1.109-1.68,2.277-3.508,0.15-5.035
	C610.275,327.732,608.986,329.532,607.638,330.939z M1032.137,165.385c0.359-0.21,0.749-0.419,1.108-0.6
	c-0.569-1.768-0.629-4.136-1.798-5.185c-4.705-4.076-9.771-7.762-14.688-11.599c-0.33,0.21-0.659,0.45-0.986,0.659
	c1.229,2.128,2.155,4.556,3.807,6.324c2.697,2.847,5.844,5.275,8.871,7.822C1029.589,163.766,1030.907,164.545,1032.137,165.385z
	 M834.153,198.502c-2.938-5.335-3.72-10.879-1.289-16.184c3.207-7.013-4.646-13.277-5.964-21.249
	c-2.817,6.624,1.646,11.749-0.689,17.593c-3.986,9.98-3.446,19.601,4.825,27.093c4.226,3.806,9.83,6.114,14.805,9.111
	c0.51-0.45,0.989-0.869,1.499-1.319c-0.81-1.109-1.438-2.577-2.518-3.267C840.117,207.343,836.82,203.357,834.153,198.502z
	 M652.354,150.759c14.535-2.847,24.246-17.383,20.771-31.199c-1.109,0.929-2.368,1.529-2.997,2.518
	c-1.559,2.547-2.728,5.305-4.227,7.882c-1.618,2.877-2.816,6.653-5.334,8.242C655.8,141.229,654.392,145.814,652.354,150.759z
	 M820.188,123.636c4.678,3.207,9.683,5.874,14.625,8.841c0.75-2.488,0.271-4.766-1.855-6.923c-1.738-1.768-2.997-4.016-4.438-6.084
	c-7.764-10.939-9.409-11.628-22.809-9.171c-7.643,1.379-15.225,2.907-23.677,4.525c6.055,1.019,11.389,2.038,16.754,2.788
	C806.221,118.631,813.684,119.141,820.188,123.636z M580.274,296.685c3.773,8.661,3.597,9.95,16.063,10.999
	c0.12-0.3,0.271-0.6,0.42-0.898c-2.728-1.169-5.335-2.757-8.183-3.417c-3.178-0.749-5.308-2.158-5.754-5.455
	c-0.569-3.896-1.109-7.792-1.379-11.688c-0.603-7.942-1.108-8.542-8.604-11.119c-2.188-0.75-4.525-1.858-6.114-3.447
	c-4.822-4.825-4.885-10.43-0.688-16.963c2.484-3.896,2.577-9.5,0.18-12.857c-1.978-2.727-3.687-2.907-5.484-0.06
	c-2.037,3.207-4.047,6.563-5.362,10.1c-4.196,11.179-1.199,22.508,7.399,29.071c4.286,3.267,8.782,6.264,12.917,9.71
	C577.577,292.249,579.286,294.407,580.274,296.685z M852.765,249.032c-0.896,1.378-1.02,2.667-0.09,3.566
	c-0.357,1.259,0.063,2.338,1.528,2.967c6.923,2.967,13.127,8.062,21.159,8.032c4.436-0.03,7.103,2.548,9.107,5.964
	c0.393,0.629,0.689,1.289,0.899,1.948c0.33,2.308-0.063,4.376-0.869,5.155c-3.446-2.607-6.443-5.934-10.16-7.463
	c-8.898-3.656-18.252-4.735-27.812-2.577c-1.078,0.24-2.431,0.149-3.39-0.33c-5.453-2.727-7.912-7.642-9.561-13.217
	c-1.139-5.964,0.24-11.598,2.668-17.203c0.989-2.308,1.107-4.766,0.3-6.833c-0.21-3.177-2.218-5.994-6.114-7.073
	c-5.005-1.409-9.947-3.297-14.686-5.515c-2.277-1.079-3.236-0.659-4.795,0.929c-1.528,1.558-3.269,4.046-5.125,5.065
	c-2.697,1.468-3.836,1.708-6.714,2.098c-0.09,0.03-0.209,0.03-0.299,0.03c-3.567,0.479-8.872-2.428-10.07-6.414
	c-0.72-2.398-2.487-2.667-3.808-0.42c-1.827,3.027-3.479,6.174-4.887,9.411c-2.604,6.054-7.282,9.471-13.937,11.809
	c0.21-1.289,0.42-2.398,0.776-3.477c2.607-8.212,8.032-14.806,12.857-21.699c1.679-2.397,2.938-5.334,5.125-7.133
	c6.146-4.975,12.678-9.5,19.391-14.505c-0.629-3.747-1.469-8.392-2.365-13.637c-0.063,0-0.092,0.03-0.149,0.03
	c-0.12-0.779-0.239-1.558-0.39-2.368c-9.684,1.829-19.304,3.567-28.895,5.485c-4.405,0.899-8.451,2.637-11.118,6.533
	c-1.316,1.948-2.458,4.046-3.507,6.174c-3.057,6.024-6.833,11.778-6.923,18.911c-0.062,3.716-0.09,7.493-0.899,11.089
	c-0.446,1.858-2.574,3.327-3.926,4.975c-1.438-1.259-2.938-2.428-4.193-3.836c-0.183-0.209-0.329-0.419-0.449-0.689
	c0.329-8.452,0.777-16.903,5.152-24.516c1.108-1.858,2.367-3.716,2.906-5.754c2.997-11.299,10.67-17.593,21.669-19.63
	c8.571-1.619,17.322-2.248,25.984-3.267c2.967-0.359,7.162-3.776,7.882-6.533c0.813-3.027,1.021-5.065,0.21-6.744
	c-0.061-2.337-1.139-3.896-3.866-5.484c-4.436-2.578-9.381-4.226-13.996-6.474c-12.888-6.234-26.491-6.684-40.397-5.185
	c-4.375,0.479-8.841,0.57-13.276,0.479c-4.376-0.09-8.632-1.618-10.52-5.754c-1.771-3.866-3.356-7.792-4.376-11.838
	c-0.869-4.346-1.021-8.841-0.03-13.577c0.779-3.537,0.15-7.343,0.15-10.999c-0.15-0.03-0.33-0.06-0.479-0.03
	c-0.03-0.779-0.061-1.559-0.061-2.308c-5.005-0.839-12.856,4.526-13.486,9.95c-0.689,5.875-0.479,11.898-0.359,17.862
	c0.149,8.362,0.449,16.993-6.231,23.167c-4.585,4.196-10.249,7.343-15.614,10.61c-5.185,3.177-10.879,5.514-15.854,8.931
	c-4.887,3.386-6.442,7.193-4.887,11.538c0.183,2.188,1.289,4.556,3.207,7.043c2.667,3.446,4.978,6.983,6.146,11.119
	c0.986,5.964-1.498,9.831-6.953,12.468c-4.105,2.008-7.763,4.855-12.407,7.822c0.93,0.39,1.77,0.689,2.547,1.019
	c-0.658,0.449-1.315,0.869-2.008,1.318c3.356,1.379,5.664,2.038,7.673,3.177c2.697,1.558,5.454,3.177,7.672,5.305
	c0.779,0.749,1.319,1.588,1.709,2.518v0.03c0.239,3.477-1.646,7.403-5.396,9.92c-3.956,2.638-8.303,4.766-12.678,6.684
	c-5.813,2.518-11.811,4.496-15.795,10.01c-2.156,2.997-2.52,6.863-1.38,10.31c0.539,4.346,3.39,8.481,7.822,9.98l4.137,1.948
	c-0.301,0.779-0.54,1.678-0.721,2.757c1.589,3.596,2.577,7.672,4.979,10.639c1.735,2.188,5.242,2.997,8.028,4.316
	c3.117,1.499,4.706-0.03,6.084-2.817c1.319-2.697,2.907-5.245,4.496-7.852l5.154,2.308c-2.906,4.616-5.005,9.8-7.435,14.746
	c-0.237,0.479,0.54,1.468,0.842,2.248c0.566-0.479,1.378-0.809,1.708-1.409c0.119-0.209,0.238-0.419,0.33-0.629l5.724,0.18
	c-0.329,0.449-0.599,0.959-0.749,1.468c-1.349,4.855-1.738,9.771-0.449,14.866c0.029,0.119,0.063,0.27,0.091,0.391
	c0,0.028,0,0.028,0.029,0.06c0.09,0.629,0.239,1.259,0.39,1.888c0.149,0.57,0.271,1.141,0.42,1.709
	c0.029,0.061,0.029,0.149,0.029,0.21c0.721,3.356,1.198,6.772,1.169,10.13c-0.09,8.091-1.469,16.185-1.618,24.306
	c-0.117,6.742,0.183,13.638,1.381,20.261c0.118,0.688,0.27,1.379,0.479,2.067c0.03,0.091,0.03,0.181,0.063,0.271
	c0.776,4.166,2.666,8.781,5.544,11.838c9.199,9.771,19.421,18.435,32.338,23.107c10.488,3.806,18.042,10.879,23.677,20.26
	c4.585,7.792,11.538,12.737,19.511,16.604c5.874,2.85,11.812,5.694,17.442,8.991c8.332,4.825,16.304,10.369,24.726,14.985
	c8.395,4.555,16.034,2.727,25.864,0c4.855-1.35,32.1-13.127,42.947-19.69c12.827-7.703,46.454-29.161,50.438-32.129
	c3.896-2.877,7.764-5.784,11.567-8.841c5.425-4.376,18.372-15.404,19.511-16.424c8.871-8.002,16.753-16.903,23.616-26.675
	c1.259-1.827,7.104-12.168,9.892-19.239c6.412-16.244,1.261-24.696-0.748-37.044c-0.093-0.599-0.239-1.169-0.392-1.679
	c-0.061-0.209-0.09-0.449-0.12-0.658c-0.72-4.557-3.654-6.295-7.343-7.643c-0.779-0.301-1.647-0.391-2.396-0.75
	c-8.514-4.526-17.202-8.782-25.477-13.727c-4.886-2.907-9.381-6.623-13.547-10.52c-4.046-3.776-7.972-7.882-11.029-12.467
	c-3.416-5.155-5.572-10.79-6.953-16.694c-0.688-3.207-1.139-6.503-1.438-9.8c-0.182-1.828-0.51-3.566-0.959-5.214
	c-2.008-10.43-8.901-17.953-16.783-24.696c-6.804-5.814-15.313-8.392-23.557-11.179c-13.938-4.646-25.354-11.838-30.63-26.404
	c-0.092-0.24-0.449-0.39-0.689-0.569c-1.107,2.997-2.276,5.874-3.236,8.811c-0.81,2.397-1.078,4.675-0.18,6.893
	c0.119,1.648,0.749,3.237,2.128,4.825c4.555,5.245,10.311,8.302,16.783,10.37c4.975,1.559,8.451,3.807,10.04,9.141
	c1.229,7.073-0.659,12.438-4.406,17.952C859.388,238.782,856.121,243.937,852.765,249.032z M538.916,169.88
	c-4.286,4.525-4.286,9.86-3.117,15.794C542.063,181.089,539.155,175.245,538.916,169.88z M551.293,266.654
	c-0.959-6.503-2.757-12.737-1.948-19.48c0.57-5.005,1.738-9.621,4.916-13.607c1.771-2.218,2.248-4.465,0.33-6.833
	c-1.828-2.188-3.687-4.346-5.482-6.593c-5.484-6.923-11.239-13.637-16.307-20.859c-4.375-6.264-4.732-13.637-4.104-21.099
	c0.479-5.515,4.466-8.452,7.939-11.898c2.068-2.038,3.656-4.525,5.544-6.713c0.959-1.109,2.131-2.008,3.207-2.997
	c1.38-1.229,2.817-2.398,4.139-3.717c0.896-0.929,1.438-2.248,2.396-3.027c1.648-1.289,1.679-2.547,0.899-4.346
	c-2.729-6.384-1.318-11.958,4.046-16.304c1.856-1.499,4.076-2.607,5.784-4.256c2.814-2.697,5.544-5.515,7.939-8.571
	c1.891-2.428,1.47-5.275-0.42-7.672c-2.578-3.267-5.154-6.594-8.062-9.561c-8.662-8.751-6.923-16.514,0.509-24.156
	c3.626-3.746,8.932-5.814,13.307-8.901c2.787-1.978,5.638-4.106,7.766-6.744c6.084-7.552,11.599-15.584,17.712-23.107
	c7.104-8.721,16.782-12.917,27.843-13.786c12.288-0.929,24.276,1.648,36.354,3.446c4.706,0.689,9.474,0.989,14.236,1.199
	c2.548,0.12,8.813-6.563,9.352-9.351c3.236-16.424,10.58-30.959,21.039-43.906c1.947-2.428,5.244-4.076,8.241-5.275
	c6.084-2.458,12.378-4.436,18.645-6.444c1.678-0.569,3.563-0.959,5.271-0.779c10.223,1.019,20.5,1.798,30.63,3.536
	c5.904,1.019,10.16-1.318,13.969-4.705c7.043-6.234,14.806-9.351,24.306-9.89c11.18-0.6,22.208-1.139,33.237,1.049
	c8.688,1.738,17.439,3.177,26.134,4.795c0.93,0.18,1.946,0.479,2.638,1.079c5.604,5.035,12.889,6.054,19.57,8.542
	c5.154,1.918,10.606,3.566,15.016,6.653c3.117,2.158,5.964,2.248,9.144,2.308c7.433,0.12,14.862,0.24,22.298,0.209
	c10.816-0.06,20.829,2.638,30.027,8.392c2.729,1.679,5.814,2.757,8.571,4.436c7.522,4.615,8.901,12.557,10.909,20.229
	c2.248,8.691,0.21,17.113-0.898,25.625c-0.51,4.016-0.84,8.062-1.229,12.018c8.572,4.346,17.111,8.542,25.505,13.007
	c6.204,3.297,10.609,8.122,13.307,14.865c4.979,12.288,4.915,25.055,4.257,37.882c-0.181,3.417-2.129,6.803-3.564,10.07
	c-2.188,5.035-4.585,10.01-7.043,14.925c-0.959,1.888-0.959,3.386,0.63,4.795c3.984,3.566,7.822,7.373,12.078,10.58
	c6.713,5.005,8.029,7.854,6.412,16.184c-0.182,0.839,0.511,2.188,1.229,2.847c1.771,1.588,3.776,2.907,5.694,4.375
	c5.573,4.286,6.65,6.953,4.285,13.606c-1.051,3.057-0.812,5.335,0.75,8.032c3.563,6.264,4.226,12.677,1.288,19.601
	c-3.599,8.421-3.389,8.602,5.034,11.539c4.524,1.558,8.15,4.016,11.209,7.912c4.614,5.904,8.604,12.048,10.788,19.271
	c1.169,3.776,1.229,7.373-1.499,10.52c-2.667,3.057-5.362,6.114-8.239,8.991c-0.988,0.959-2.52,1.379-3.809,2.038
	c-0.21-0.3-0.419-0.569-0.629-0.839c1.259-1.379,2.487-2.757,3.746-4.106c3.146-3.327,4.286-7.103,2.815-11.569
	c-1.168-3.506-2.156-7.103-3.508-10.549c-2.308-5.964-7.043-9.351-12.314-11.539c-1.648,8.721-3.147,17.233-4.915,25.685
	c-0.45,2.158-0.33,3.836,1.468,5.065c5.604,3.806,7.343,9.291,6.624,15.674c-0.39,3.387,1.14,4.436,4.194,4.646
	c6.265,0.45,11.51-1.528,15.886-6.054c1.438-1.499,3.057-2.877,4.585-4.315c0.33,0.12,0.63,0.27,0.959,0.419
	c-1.648,3.447-3.297,6.923-4.915,10.37c0.239,0.18,0.479,0.33,0.749,0.51c5.215-7.433,10.43-14.835,16.334-23.227
	c-0.419,3.477-0.301,6.174-1.049,8.602c-4.768,15.554-15.704,24.755-30.959,29.221c-1.682,0.51-3.566,0.21-5.335,0.51
	c-1.408,0.27-2.757,0.869-4.769,1.5c5.245,5.664,11.119,7.791,17.413,8.961c1.892,0.358,3.837,0.42,5.694,0.869
	c9.411,2.276,16.663-0.75,22.328-8.541c-1.409,8.57-2.278,17.411-13.638,19.539c0.091,0.359,0.209,0.689,0.329,1.049
	c6.385,2.369,12.678,5.125,19.239,7.015c14.326,4.136,28.802,7.821,43.218,11.718c0,93.028,0,186.056,0,279.083
	c-76.964,0-153.928,0-230.892,0c-1.588-10.159-2.938-20.38-4.765-30.479c-2.521-13.756-5.125-27.515-8.122-41.148
	c-1.892-8.721-5.006-17.173-6.807-25.895c-1.768-8.451-4.975-16.187-8.898-23.736c-1.198-2.277-2.606-4.495-4.046-6.982
	c-6.146,13.666-14.717,20.919-23.826,19.723c1.559-2.277,2.967-4.258,4.286-6.294c0.896-1.38,1.888-2.786,2.484-4.315
	c4.076-10.549,0.421-15.313-9.408-19.57c-7.885-3.387-16.573-2.937-25.146-2.604c-9.171,0.33-17.651,3.354-26.434,5.153
	c-3.537,0.721-7.313,0.118-11.302,0.118c0,0-0.237,0.57-0.21,1.109c0.569,14.386-7.882,23.257-18.791,30.54
	c-0.868,0.599-3.058,0.479-3.747-0.21c-0.719-0.749-0.657-2.578-0.419-3.836c0.183-0.96,1.261-1.709,1.891-2.578
	c2.366-3.236,2.638-6.443,1.196-10.431c-3.443-9.649-11.06-14.324-19.811-17.861c-5.545-2.247-11.179-4.315-16.753-6.503
	c-8.632-3.389-15.465-10.55-12.647-22.328c0.119-0.539,0.149-1.079,0.302-2.068c-5.694,2.759-7.793,7.583-9.021,12.708
	c-0.989,4.019-1.349,8.271-1.559,12.438c-0.569,12.228,3.234,18.372,13.784,21.519c6.354,1.89,12.56,3.746,19.899,1.109
	c-1.618,4.733-3.026,8.661-6.803,11.118c-11.119,7.281-22.748,8.778-35.188,3.563c-6.111-2.576-8.602-8.182-11.509-13.273
	c-6.384-11.239-5.185-23.497-3.836-35.694c1.049-9.381,2.817-18.792,2.639-28.144c-0.148-8.094-4.437-15.256-10.102-21.248
	c-1.169-1.229-2.727-2.067-3.716-3.39c-2.1-2.757-4.438-2.274-6.384-0.3c-2.938,2.968-5.694,6.204-4.586,11.029
	c2.128,9.32,4.047,18.672,6.294,27.963c1.589,6.533,2.275,13.007,0.061,19.45c-2.638,7.643-8.422,12.616-15.824,14.325
	c-11.688,2.638-23.228,1.918-32.548-7.135c-1.799-1.769-3.058-4.047-4.556-6.084c0.27-0.3,0.539-0.6,0.809-0.896
	c0.869,0.39,1.771,0.719,2.641,1.139c5.243,2.697,10.34,2.099,14.652-1.738c4.02-3.597,5.485-8.841,2.787-14.023
	c-3.267-6.323-7.372-12.197-11.117-18.281c-3.564-5.784-8.03-11.299-7.764-18.521c0.12-3.627,1.021-7.373,2.396-10.729
	c3.808-9.321,3.298-18.19-1.799-26.794c-0.447-0.779-1.736-1.617-2.459-1.468c-0.748,0.147-1.525,1.349-1.888,2.245
	c-1.317,3.298-1.948,7.016-3.807,9.951c-5.574,8.779-17.412,13.938-28.292,10.221c-6.623-2.277-13.246-5.274-16.604-12.287
	c-0.27-0.54-0.567-1.05-0.777-1.589c-0.092-0.211,0.028-0.449,0.118-1.021c1.592,1.139,3.088,2.188,4.559,3.269
	c5.994,4.375,12.525,4.375,19.148,2.128c5.154-1.77,7.104-5.846,6.686-11.239c-0.271-3.297,0.029-6.653,0.42-9.979
	c0.929-8.122,2.638-16.242-1.108-24.188c-0.75-1.559-1.169-3.566-0.96-5.244c0.779-5.965,1.589-11.958,2.969-17.803
	c0.987-4.166-1.617-11.6-5.813-13.457c-2.577-1.169-5.396-2.067-8.212-2.428c-7.435-0.988-12.438-4.825-14.625-11.958
	c-1.529-4.885-4.406-8.122-8.542-11.299C559.535,284.157,552.882,277.324,551.293,266.654z M846.71,242.168
	c5.845-8.841,10.37-14.686,5.994-18.911C850.337,229.491,846.081,234.916,846.71,242.168z M742.234,467.965
	c3.323,4.915,6.65,6.593,10.906,6.084C749.337,471.921,745.801,469.942,742.234,467.965z M723.323-17.254
	c0.419-1.019-0.479-2.548-0.84-3.956c-5.218,2.937-15.704,22.178-16.753,30.09c1.798-1.588,3.836-2.967,5.305-4.795
	c2.518-3.117,4.945-6.384,6.953-9.831C720.086-9.402,721.794-13.328,723.323-17.254z M571.733,95.165
	c-0.15-5.964-0.359-11.688,4.313-16.963c-6.294,2.038-8.182,4.316-8.271,9.381C567.717,90.639,567.507,93.875,571.733,95.165z"/>
<path opacity="0.4" fill="#F7941E" d="M705.641,289.372c-0.061-2.727-1.525-4.615-4.976-5.245c0.18,2.757,0.479,5.185,0.54,7.643
	c0.21,9.291-7.732,14.206-15.914,9.83c-2.668-1.438-7.763,0.12-9.831,2.817l-5.724-0.18c0.749-1.468,1.229-3.177,2.274-4.405
	c4.979-5.814,10.189-11.449,15.495-17.383c0.09,0.03-0.39-0.36-0.896-0.42c-4.825-0.629-8.661,2.128-10.999,5.335
	c-0.45,0.629-0.899,1.259-1.319,1.918l-5.154-2.308c0.539-0.839,1.049-1.708,1.562-2.578c0.719-1.229,1.798-2.397,2.008-3.716
	c0.146-1.049-0.54-2.997-1.318-3.296c-6.384-2.488-12.854-4.376-19.778-2.038c-2.816,0.959-4.405,2.218-5.334,4.585l-4.139-1.948
	c0.329-0.419,0.869-0.839,1.049-1.378c2.011-5.754,6.743-9.471,11.392-12.378c10.1-6.383,21.396-6.923,32.757-3.057
	c2.398,0.809,4.646,2.277,7.014,3.327c2.938,1.318,6.057,2.308,8.934,3.746c5.362,2.697,8.332,6.444,9.591,10.699
	c0.567,3.716,0.03,7.703-1.229,11.629c-0.868,2.847-2.604,5.694-6.145,7.013c0.33-1.828,0.63-3.537,0.659-5.245
	c0.061-1.109-0.092-2.068-0.511-2.907C705.67,289.402,705.67,289.372,705.641,289.372z"/>
<path opacity="0.4" fill="#F7941E" d="M843.743,355.813c2.638,0.898,2.604,2.578,0.42,4.105c-5.035,3.389-9.98,6.833-16.124,8.242
	c-3.087,0.719-5.845,2.904-8.781,4.404c-3.297,1.646-6.504,3.535-9.95,4.795c-3.653,1.35-5.874,3.478-7.792,7.072
	c-3.537,6.563-7.521,13.396-16.874,12.526c-0.566-0.03-1.195,0.18-1.768,0.33c-2.968,0.779-6.743,0.959-7.553,4.495
	c-0.899,3.956,0.27,7.822,3.323,10.818c4.616,4.557,6.597,4.557,12.471,1.498c5.482-2.879,11.236-5.306,16.934-7.82
	c4.315-1.919,8.841-3.417,13.007-5.665c2.311-1.26,3.896-3.716,5.964-5.454c0.989-0.842,2.431-1.77,3.537-1.646
	c0.812,0.09,1.798,1.736,2.067,2.848c0.6,2.396,0.81,4.915,1.169,7.373c0.689,5.781-2.877,9.591-5.874,13.784
	c-3.267,4.614-8.182,6.476-12.978,8.361c-7.192,2.848-10.489,9.23-14.298,15.045c-4.732,7.163-11.566,9.65-18.908,5.544
	c-5.938-3.297-11.419-7.372-17.177-11.025c-3.926-2.488-5.095-6.387-5.844-10.61c-0.989-5.514-2.518-10.999-3.087-16.543
	c-0.869-8.512-0.359-17.113,3.387-24.813c1.142-2.338,5.364-4.105,8.361-4.406c7.493-0.75,13.637-3.955,19.271-8.48
	c0.777-0.629,1.196-1.77,1.616-2.757c2.907-6.923,7.372-9.74,14.808-9.171c5.665,0.447,11.419,1.736,16.992,1.259
	c6.652-0.54,13.155-2.638,19.722-3.956C841.076,355.694,842.574,355.396,843.743,355.813z"/>
<path opacity="0.4" fill="#F7941E" d="M779.637,318.145c6.084,4.646,5.428,9.949-0.839,12.977c-4.136,1.979-8.032,4.496-10.16,8.842
	c-0.539,1.049-1.229,2.337-0.986,3.326c1.229,5.365-2.188,9.021-5.308,11.868c-4.346,4.017-4.885,9.051-6.293,14.057
	c-0.869,3.06-1.919,6.113-3.146,9.054c-0.899,2.064-2.607,2.756-4.675,1.289c-3.207-2.248-5.784-4.826-6.177-9.111
	c-0.567-5.904-5.335-8.932-9.318-12.168c-3.836-3.117-7.854-5.904-9.893-10.58c-0.66-1.498-1.259-3.146-1.316-4.766
	c-0.183-3.236,2.156-4.524,5.305-4.017c5.665,0.898,11.419,1.947,17.083,1.678c3.387-0.148,6.894-2.367,9.891-4.346
	c1.288-0.898,1.59-3.507,1.979-5.395c0.54-2.668,1.918-4.017,4.616-3.986C768.099,326.954,774.722,324.617,779.637,318.145z"/>
</svg>
